<svg id="visual" viewBox="0 0 900 600" width="900" height="600" xmlns="http://www.w3.org/2000/svg" xmlns:xlink="http://www.w3.org/1999/xlink" version="1.1"><rect x="0" y="0" width="900" height="600" fill="#001220"></rect><path d="M0 399L21.5 398.8C43 398.7 86 398.3 128.8 398.3C171.7 398.3 214.3 398.7 257.2 403.7C300 408.7 343 418.3 385.8 420C428.7 421.7 471.3 415.3 514.2 414C557 412.7 600 416.3 642.8 420.3C685.7 424.3 728.3 428.7 771.2 432.5C814 436.3 857 439.7 878.5 441.3L900 443L900 601L878.5 601C857 601 814 601 771.2 601C728.3 601 685.7 601 642.8 601C600 601 557 601 514.2 601C471.3 601 428.7 601 385.8 601C343 601 300 601 257.2 601C214.3 601 171.7 601 128.8 601C86 601 43 601 21.5 601L0 601Z" fill="#0066ff"></path><path d="M0 427L21.5 430.2C43 433.3 86 439.7 128.8 443.5C171.7 447.3 214.3 448.7 257.2 441.3C300 434 343 418 385.8 410.2C428.7 402.3 471.3 402.7 514.2 403.5C557 404.3 600 405.7 642.8 411.7C685.7 417.7 728.3 428.3 771.2 429C814 429.7 857 420.3 878.5 415.7L900 411L900 601L878.5 601C857 601 814 601 771.2 601C728.3 601 685.7 601 642.8 601C600 601 557 601 514.2 601C471.3 601 428.7 601 385.8 601C343 601 300 601 257.2 601C214.3 601 171.7 601 128.8 601C86 601 43 601 21.5 601L0 601Z" fill="#0098ff"></path><path d="M0 499L21.5 498C43 497 86 495 128.8 486.3C171.7 477.7 214.3 462.3 257.2 453.8C300 445.3 343 443.7 385.8 450.2C428.7 456.7 471.3 471.3 514.2 471.8C557 472.3 600 458.7 642.8 451.5C685.7 444.3 728.3 443.7 771.2 445.8C814 448 857 453 878.5 455.5L900 458L900 601L878.5 601C857 601 814 601 771.2 601C728.3 601 685.7 601 642.8 601C600 601 557 601 514.2 601C471.3 601 428.7 601 385.8 601C343 601 300 601 257.2 601C214.3 601 171.7 601 128.8 601C86 601 43 601 21.5 601L0 601Z" fill="#00beff"></path><path d="M0 532L21.5 532.8C43 533.7 86 535.3 128.8 526.8C171.7 518.3 214.3 499.7 257.2 493.8C300 488 343 495 385.8 504.7C428.7 514.3 471.3 526.7 514.2 530.3C557 534 600 529 642.8 523.3C685.7 517.7 728.3 511.3 771.2 513C814 514.7 857 524.3 878.5 529.2L900 534L900 601L878.5 601C857 601 814 601 771.2 601C728.3 601 685.7 601 642.8 601C600 601 557 601 514.2 601C471.3 601 428.7 601 385.8 601C343 601 300 601 257.2 601C214.3 601 171.7 601 128.8 601C86 601 43 601 21.5 601L0 601Z" fill="#00e0ff"></path><path d="M0 529L21.5 535.5C43 542 86 555 128.8 556.8C171.7 558.7 214.3 549.3 257.2 546.5C300 543.7 343 547.3 385.8 547.5C428.7 547.7 471.3 544.3 514.2 545.2C557 546 600 551 642.8 555.8C685.7 560.7 728.3 565.3 771.2 563.8C814 562.3 857 554.7 878.5 550.8L900 547L900 601L878.5 601C857 601 814 601 771.2 601C728.3 601 685.7 601 642.8 601C600 601 557 601 514.2 601C471.3 601 428.7 601 385.8 601C343 601 300 601 257.2 601C214.3 601 171.7 601 128.8 601C86 601 43 601 21.5 601L0 601Z" fill="#00ffff"></path></svg>