<svg id="visual" viewBox="0 0 900 450" width="900" height="450" xmlns="http://www.w3.org/2000/svg" xmlns:xlink="http://www.w3.org/1999/xlink" version="1.1"><rect x="0" y="0" width="900" height="450" fill="#001220"></rect><path d="M0 149L21.5 149C43 149 86 149 128.8 149C171.7 149 214.3 149 257.2 145.3C300 141.7 343 134.3 385.8 133C428.7 131.7 471.3 136.3 514.2 137.3C557 138.3 600 135.7 642.8 132.7C685.7 129.7 728.3 126.3 771.2 123.5C814 120.7 857 118.3 878.5 117.2L900 116L900 0L878.5 0C857 0 814 0 771.2 0C728.3 0 685.7 0 642.8 0C600 0 557 0 514.2 0C471.3 0 428.7 0 385.8 0C343 0 300 0 257.2 0C214.3 0 171.7 0 128.8 0C86 0 43 0 21.5 0L0 0Z" fill="#0066ff"></path><path d="M0 128L21.5 125.7C43 123.3 86 118.7 128.8 115.8C171.7 113 214.3 112 257.2 117.3C300 122.7 343 134.3 385.8 140.2C428.7 146 471.3 146 514.2 145.5C557 145 600 144 642.8 139.5C685.7 135 728.3 127 771.2 126.5C814 126 857 133 878.5 136.5L900 140L900 0L878.5 0C857 0 814 0 771.2 0C728.3 0 685.7 0 642.8 0C600 0 557 0 514.2 0C471.3 0 428.7 0 385.8 0C343 0 300 0 257.2 0C214.3 0 171.7 0 128.8 0C86 0 43 0 21.5 0L0 0Z" fill="#0098ff"></path><path d="M0 74L21.5 74.7C43 75.3 86 76.7 128.8 83.2C171.7 89.7 214.3 101.3 257.2 107.8C300 114.3 343 115.7 385.8 110.8C428.7 106 471.3 95 514.2 94.5C557 94 600 104 642.8 109.3C685.7 114.7 728.3 115.3 771.2 113.8C814 112.3 857 108.7 878.5 106.8L900 105L900 0L878.5 0C857 0 814 0 771.2 0C728.3 0 685.7 0 642.8 0C600 0 557 0 514.2 0C471.3 0 428.7 0 385.8 0C343 0 300 0 257.2 0C214.3 0 171.7 0 128.8 0C86 0 43 0 21.5 0L0 0Z" fill="#00beff"></path><path d="M0 50L21.5 49.2C43 48.3 86 46.7 128.8 53C171.7 59.3 214.3 73.7 257.2 78C300 82.3 343 76.7 385.8 69.3C428.7 62 471.3 53 514.2 50.3C557 47.7 600 51.3 642.8 55.7C685.7 60 728.3 65 771.2 63.8C814 62.7 857 55.3 878.5 51.7L900 48L900 0L878.5 0C857 0 814 0 771.2 0C728.3 0 685.7 0 642.8 0C600 0 557 0 514.2 0C471.3 0 428.7 0 385.8 0C343 0 300 0 257.2 0C214.3 0 171.7 0 128.8 0C86 0 43 0 21.5 0L0 0Z" fill="#00e0ff"></path><path d="M0 51L21.5 46.3C43 41.7 86 32.3 128.8 31C171.7 29.7 214.3 36.3 257.2 38.3C300 40.3 343 37.7 385.8 37.7C428.7 37.7 471.3 40.3 514.2 39.7C557 39 600 35 642.8 31.3C685.7 27.7 728.3 24.3 771.2 25.5C814 26.7 857 32.3 878.5 35.2L900 38L900 0L878.5 0C857 0 814 0 771.2 0C728.3 0 685.7 0 642.8 0C600 0 557 0 514.2 0C471.3 0 428.7 0 385.8 0C343 0 300 0 257.2 0C214.3 0 171.7 0 128.8 0C86 0 43 0 21.5 0L0 0Z" fill="#00ffff"></path></svg>