<svg id="visual" viewBox="0 0 900 600" width="900" height="600" xmlns="http://www.w3.org/2000/svg" xmlns:xlink="http://www.w3.org/1999/xlink" version="1.1"><rect x="0" y="0" width="900" height="600" fill="#ffffff"></rect><path d="M0 354L21.5 360.8C43 367.7 86 381.3 128.8 390.3C171.7 399.3 214.3 403.7 257.2 403.8C300 404 343 400 385.8 404C428.7 408 471.3 420 514.2 424.3C557 428.7 600 425.3 642.8 419.8C685.7 414.3 728.3 406.7 771.2 394.7C814 382.7 857 366.3 878.5 358.2L900 350L900 601L878.5 601C857 601 814 601 771.2 601C728.3 601 685.7 601 642.8 601C600 601 557 601 514.2 601C471.3 601 428.7 601 385.8 601C343 601 300 601 257.2 601C214.3 601 171.7 601 128.8 601C86 601 43 601 21.5 601L0 601Z" fill="#69fae4"></path><path d="M0 430L21.5 420.8C43 411.7 86 393.3 128.8 394.8C171.7 396.3 214.3 417.7 257.2 419.2C300 420.7 343 402.3 385.8 402.5C428.7 402.7 471.3 421.3 514.2 423.7C557 426 600 412 642.8 409.5C685.7 407 728.3 416 771.2 416.2C814 416.3 857 407.7 878.5 403.3L900 399L900 601L878.5 601C857 601 814 601 771.2 601C728.3 601 685.7 601 642.8 601C600 601 557 601 514.2 601C471.3 601 428.7 601 385.8 601C343 601 300 601 257.2 601C214.3 601 171.7 601 128.8 601C86 601 43 601 21.5 601L0 601Z" fill="#4bece7"></path><path d="M0 454L21.5 447.5C43 441 86 428 128.8 418.8C171.7 409.7 214.3 404.3 257.2 402.3C300 400.3 343 401.7 385.8 405.8C428.7 410 471.3 417 514.2 426.8C557 436.7 600 449.3 642.8 451C685.7 452.7 728.3 443.3 771.2 435.8C814 428.3 857 422.7 878.5 419.8L900 417L900 601L878.5 601C857 601 814 601 771.2 601C728.3 601 685.7 601 642.8 601C600 601 557 601 514.2 601C471.3 601 428.7 601 385.8 601C343 601 300 601 257.2 601C214.3 601 171.7 601 128.8 601C86 601 43 601 21.5 601L0 601Z" fill="#2cdee9"></path><path d="M0 426L21.5 426.5C43 427 86 428 128.8 436C171.7 444 214.3 459 257.2 467.3C300 475.7 343 477.3 385.8 469.8C428.7 462.3 471.3 445.7 514.2 445.2C557 444.7 600 460.3 642.8 466.8C685.7 473.3 728.3 470.7 771.2 462.3C814 454 857 440 878.5 433L900 426L900 601L878.5 601C857 601 814 601 771.2 601C728.3 601 685.7 601 642.8 601C600 601 557 601 514.2 601C471.3 601 428.7 601 385.8 601C343 601 300 601 257.2 601C214.3 601 171.7 601 128.8 601C86 601 43 601 21.5 601L0 601Z" fill="#0bd0e8"></path><path d="M0 467L21.5 467.3C43 467.7 86 468.3 128.8 471.8C171.7 475.3 214.3 481.7 257.2 485.2C300 488.7 343 489.3 385.8 486.5C428.7 483.7 471.3 477.3 514.2 477.8C557 478.3 600 485.7 642.8 489C685.7 492.3 728.3 491.7 771.2 493.3C814 495 857 499 878.5 501L900 503L900 601L878.5 601C857 601 814 601 771.2 601C728.3 601 685.7 601 642.8 601C600 601 557 601 514.2 601C471.3 601 428.7 601 385.8 601C343 601 300 601 257.2 601C214.3 601 171.7 601 128.8 601C86 601 43 601 21.5 601L0 601Z" fill="#00c1e5"></path><path d="M0 477L21.5 477.2C43 477.3 86 477.7 128.8 479.5C171.7 481.3 214.3 484.7 257.2 486.7C300 488.7 343 489.3 385.8 489.3C428.7 489.3 471.3 488.7 514.2 486.3C557 484 600 480 642.8 480C685.7 480 728.3 484 771.2 487.7C814 491.3 857 494.7 878.5 496.3L900 498L900 601L878.5 601C857 601 814 601 771.2 601C728.3 601 685.7 601 642.8 601C600 601 557 601 514.2 601C471.3 601 428.7 601 385.8 601C343 601 300 601 257.2 601C214.3 601 171.7 601 128.8 601C86 601 43 601 21.5 601L0 601Z" fill="#00b2e0"></path><path d="M0 544L21.5 538.5C43 533 86 522 128.8 518.8C171.7 515.7 214.3 520.3 257.2 525.5C300 530.7 343 536.3 385.8 537.7C428.7 539 471.3 536 514.2 531.7C557 527.3 600 521.7 642.8 520.2C685.7 518.7 728.3 521.3 771.2 526.2C814 531 857 538 878.5 541.5L900 545L900 601L878.5 601C857 601 814 601 771.2 601C728.3 601 685.7 601 642.8 601C600 601 557 601 514.2 601C471.3 601 428.7 601 385.8 601C343 601 300 601 257.2 601C214.3 601 171.7 601 128.8 601C86 601 43 601 21.5 601L0 601Z" fill="#00a2da"></path><path d="M0 554L21.5 552.5C43 551 86 548 128.8 548.2C171.7 548.3 214.3 551.7 257.2 552.3C300 553 343 551 385.8 550C428.7 549 471.3 549 514.2 547.5C557 546 600 543 642.8 545.5C685.7 548 728.3 556 771.2 557C814 558 857 552 878.5 549L900 546L900 601L878.5 601C857 601 814 601 771.2 601C728.3 601 685.7 601 642.8 601C600 601 557 601 514.2 601C471.3 601 428.7 601 385.8 601C343 601 300 601 257.2 601C214.3 601 171.7 601 128.8 601C86 601 43 601 21.5 601L0 601Z" fill="#0092d1"></path><path d="M0 571L21.5 570C43 569 86 567 128.8 568.7C171.7 570.3 214.3 575.7 257.2 577.8C300 580 343 579 385.8 576C428.7 573 471.3 568 514.2 564C557 560 600 557 642.8 559.3C685.7 561.7 728.3 569.3 771.2 569.5C814 569.7 857 562.3 878.5 558.7L900 555L900 601L878.5 601C857 601 814 601 771.2 601C728.3 601 685.7 601 642.8 601C600 601 557 601 514.2 601C471.3 601 428.7 601 385.8 601C343 601 300 601 257.2 601C214.3 601 171.7 601 128.8 601C86 601 43 601 21.5 601L0 601Z" fill="#2482c7"></path></svg>